# xmcd
#
# Track frame offsets: 
#        150
#        19861
#        37740
#        59325
#        76427
#        94996
#        110161
#        129881
#        146566
#        167513
#        191215
#        215920
#        238967
#
# Disc length: 3491 seconds
#
# Revision: 1
# Processed by: cddbd v1.5.2PL0 Copyright (c) Steve Scherf et al.
# Submitted via: ExactAudioCopy v1.3
#
DISCID=bc0da10d
DTITLE=Enzo Avitabile - Pelle Differente CD2
DYEAR=2018
DGENRE=Italia/World
TTITLE0=Fratello Soul
TTITLE1=Dolce Sweet
TTITLE2=Charlie
TTITLE3=When I Believe
TTITLE4=Gospel Mio
TTITLE5=Napoli Dance
TTITLE6=S.O.S. Brothers
TTITLE7=Black Out
TTITLE8=Alta Tensione
TTITLE9=Stella Dissidente
TTITLE10=Dies Irae
TTITLE11=Leave me or Love Me - feat Randy Crawford
TTITLE12=Solo
EXTD=
EXTT0=
EXTT1=
EXTT2=
EXTT3=
EXTT4=
EXTT5=
EXTT6=
EXTT7=
EXTT8=
EXTT9=
EXTT10=
EXTT11=
EXTT12=
PLAYORDER=
